<?xml version="1.0" encoding="utf-8"?>
<!-- Generator: Adobe Illustrator 25.2.3, SVG Export Plug-In . SVG Version: 6.00 Build 0)  -->
<svg version="1.1" id="Layer_1" xmlns="http://www.w3.org/2000/svg" xmlns:xlink="http://www.w3.org/1999/xlink" x="0px" y="0px"
	 viewBox="0 0 521.3 397" style="enable-background:new 0 0 521.3 397;" xml:space="preserve">
<style type="text/css">
	.st0{fill:#BE1E2D;}
</style>
<g>
	<path class="st0" d="M197.2,144.6c7,0,197.8,0,197.8,0s-4.7-8.1-16.7-18.5c-12-10.4-21.1-13.9-45.7-18
		c-26.7-4.5-116.8-3.3-129.8-1.9c-11,1.2-13.9,4.5-15.1,6.3c-2.4,3.5-2.3,7.1-1.7,12.1c0.4,3.7,1.4,7.5,2.2,11
		C190.2,144.3,194.8,144.6,197.2,144.6z"/>
	<path class="st0" d="M410.8,150.4c3.9,0,19.5-3.5,23-7.8c3.5-4.3-2.7-9-7.4-11.3c-4.7-2.3-12.6-6.6-19.6-3.1c0,0-1.1,0-2.3,5.5
		C403.4,139.1,406.9,150.4,410.8,150.4z"/>
	<path class="st0" d="M95.4,163.9c6.9,3,64.8-18.8,64.8-18.8s7.1-2,11.3-11.7c3.2-7.3,7.8-17.1,4.2-21.3c-0.7-0.8-2.9-3-9.3-0.7
		c-10.4,3.8-31.8,12-53.4,29.6C98.5,152.9,88.5,160.9,95.4,163.9z"/>
	<path class="st0" d="M83.8,158c0.2,2.3,10.4-17.3,39.4-34.4c4.1-2.4-10.3-0.4-23.9,3.2c-7,1.8-21.4,4.9-22.9,9.8
		c-1.3,4.6,2.2,8.8,3.5,10.5C81.4,149.6,83.5,153.8,83.8,158z"/>
	<path class="st0" d="M451.3,280.3c6.8-1,8.5-10.5,9-11.7c6.6-0.1,7.7,0,10.3,0c4.7,0,4.3-9.1,5-27.3c0.3-8.3,1.6-18.5,0.7-36.9
		c-1.1-21.9-16.6-43.3-29.1-43.5c-18.6-0.4-28.7,4.5-36.7,24c3.1-0.1,42.9,0,46.6,3.7c3.7,3.7,3.7,13.9,3.7,13.9s-41.8-1.1-54.6-0.3
		c-2.6,16.6-3.9,32.8-29.2,35.8c-39.9,4.7-79.1,3-92-18.9c-2.3-3.8-5.6-9.4-10.7-15.8c-21.9-0.2-60.2,0.6-62.2,0.6
		c-2.7,0-4.1-5.8-4.7-9.8c-1.1-6.6,2.4-5.6,49.2-8.3c-11.5-9.2-27.3-18.4-49-25.5c-52.7-17.3-65.5-6.1-73.4,11.2
		c-6.2,13.7-7,28-6.1,44.9c0.2,3,0,12.8,0,13.9c-11.8-0.7-31.8,1-32.9-20.9c-1.1-22.2,2.5-29.3,2.5-30.6c0-1.4-16.7-1.7-12.8-11.5
		c3.9-9.8-17.3,1.3-22.1,4.7c-2.8,0.9-6.6,4.3-7.8,9.8c-0.4,1.5-0.6,5-0.8,9.7c-5.7,4.3-9.9,22.3-9.9,43.9c0,15.4,2.2,28.9,5.4,37
		c1,2.4,3.7,7.3,6,8.7c-32.6,1.5-51.9,3.3-51.9,5.2c0,4.8,115.3,8.7,257.4,8.7c142.2,0,257.4-3.9,257.4-8.7
		C518.4,283.9,493,281.9,451.3,280.3z M147.1,185.2c5.6,0,10.2,18.1,10.2,40.3c0,22.3-4.5,40.3-10.2,40.3
		c-5.6,0-10.2-18.1-10.2-40.3C136.9,203.2,141.5,185.2,147.1,185.2z M51.5,235.3c0-19.2,3.9-34.7,8.7-34.7c4.8,0,8.7,15.5,8.7,34.7
		c0,19.2-3.9,34.7-8.7,34.7C55.4,269.9,51.5,254.4,51.5,235.3z M105.9,265.7c9.5,0.5,19.1,0.8,27.5,0.9c1.9,5.4,4.3,9.5,6.8,11.9
		c-14.7,0.3-28.6,0.6-41.4,0.9C101.6,277.7,104.1,272.8,105.9,265.7z M186.5,277.9c1.2-1.5,2.4-3.6,3.4-6.3
		c24-0.2,140.6-1.5,215.7-2.3c1.9,4.6,4.2,8.1,6.6,9.9c-42.5-1-94.7-1.7-151.2-1.7C235.1,277.5,210.1,277.6,186.5,277.9z"/>
</g>
</svg>
